# xmcd
#
# Track frame offsets: 
#        150
#        21787
#        61859
#        94723
#        132369
#        175762
#        213218
#        251322
#        277468
#
# Disc length: 3990 seconds
#
# Revision: 4
# Processed by: cddbd v1.5.2PL0 Copyright (c) Steve Scherf et al.
# Submitted via: ExactAudioCopy v0.95b4
#
DISCID=7a0f9409
DTITLE=Art Blakey and The Jazz Messengers - Hard Bop
DYEAR=1956
DGENRE=Jazz
TTITLE0=Cranky Spanky
TTITLE1=Stella by Starlight
TTITLE2=My Heart Stood Still
TTITLE3=Little Melonae
TTITLE4=Stanley's Stiff Chickens
TTITLE5=Nica's Tempo
TTITLE6=Dee's Dilemma
TTITLE7=Just For Marty
TTITLE8=Gershwin Medley (Rhapsody In Blue - Summertime - Someone To Wa
TTITLE8=tch Over Me - The Man I Love)
EXTD=YEAR: 2006
EXTT0=
EXTT1=
EXTT2=
EXTT3=
EXTT4=
EXTT5=
EXTT6=
EXTT7=
EXTT8=
PLAYORDER=
